<svg width="16" height="16" viewBox="0 0 16 16" fill="none" xmlns="http://www.w3.org/2000/svg">
<g clip-path="url(#clip0)">
<path d="M13.0739 10.7789C14.69 10.7789 16.0001 9.47752 16.0001 7.8722C16.0001 6.26688 14.69 4.96552 13.0739 4.96552C11.4578 4.96552 10.1477 6.26688 10.1477 7.8722C10.1477 9.47752 11.4578 10.7789 13.0739 10.7789Z" fill="white"/>
<path d="M9.68332 5.15395C8.18863 5.15395 6.96761 6.36681 6.96761 7.87243C6.96761 9.35714 8.18863 10.57 9.70437 10.57L9.68332 5.15395Z" fill="white"/>
<path d="M0 7.87219C0 7.1612 0.273675 6.53386 0.715765 6.03198V9.69148C0.273675 9.21052 0 8.58318 0 7.87219Z" fill="white"/>
<path d="M6.33679 5.32093C5.30523 5.69733 4.54736 6.70108 4.54736 7.87212C4.54736 9.04316 5.28418 10.026 6.33679 10.4024V5.32093Z" fill="white"/>
<path d="M2.42118 7.85144C2.42118 6.97316 2.84223 6.19943 3.49484 5.69756V10.0053C2.84223 9.50344 2.42118 8.72972 2.42118 7.85144Z" fill="white"/>
</g>
<defs>
<clipPath id="clip0">
<rect width="16" height="16" fill="white"/>
</clipPath>
</defs>
</svg>
