<svg width="58" height="22" viewBox="0 0 58 22" fill="none" xmlns="http://www.w3.org/2000/svg">
<path d="M47.3928 21.0735C53.2512 21.0735 58.0004 16.356 58.0004 10.5367C58.0004 4.71746 53.2512 0 47.3928 0C41.5344 0 36.7853 4.71746 36.7853 10.5367C36.7853 16.356 41.5344 21.0735 47.3928 21.0735Z" fill="#ffffff"/>
<path d="M35.102 0.683072C29.6838 0.683072 25.2576 5.0797 25.2576 10.5376C25.2576 15.9197 29.6838 20.3163 35.1784 20.3163L35.102 0.683072Z" fill="#ffffff"/>
<path d="M0 10.5367C0 7.95936 0.992072 5.68524 2.59465 3.86595V17.1316C0.992072 15.3881 0 13.114 0 10.5367Z" fill="#ffffff"/>
<path d="M22.9709 1.28837C19.2315 2.65284 16.4842 6.29143 16.4842 10.5364C16.4842 14.7815 19.1552 18.3442 22.9709 19.7087V1.28837Z" fill="#ffffff"/>
<path d="M8.77679 10.4615C8.77679 7.2777 10.3031 4.47296 12.6688 2.65367V18.2693C10.3031 16.45 8.77679 13.6452 8.77679 10.4615Z" fill="#ffffff"/>
</svg>
